<?xml version="1.0" encoding="utf-8" standalone="no"?>
<!DOCTYPE svg PUBLIC "-//W3C//DTD SVG 1.1//EN"
  "http://www.w3.org/Graphics/SVG/1.1/DTD/svg11.dtd">
<svg xmlns:xlink="http://www.w3.org/1999/xlink" width="856.771875pt" height="426.274684pt" viewBox="0 0 856.771875 426.274684" xmlns="http://www.w3.org/2000/svg" version="1.1">
 <metadata>
  <rdf:RDF xmlns:dc="http://purl.org/dc/elements/1.1/" xmlns:cc="http://creativecommons.org/ns#" xmlns:rdf="http://www.w3.org/1999/02/22-rdf-syntax-ns#">
   <cc:Work>
    <dc:type rdf:resource="http://purl.org/dc/dcmitype/StillImage"/>
    <dc:date>2025-05-23T11:17:59.231260</dc:date>
    <dc:format>image/svg+xml</dc:format>
    <dc:creator>
     <cc:Agent>
      <dc:title>Matplotlib v3.7.1, https://matplotlib.org/</dc:title>
     </cc:Agent>
    </dc:creator>
   </cc:Work>
  </rdf:RDF>
 </metadata>
 <defs>
  <style type="text/css">*{stroke-linejoin: round; stroke-linecap: butt}</style>
 </defs>
 <g id="figure_1">
  <g id="patch_1">
   <path d="M -0 426.274684 
L 856.771875 426.274684 
L 856.771875 0 
L -0 0 
z
" style="fill: #ffffff"/>
  </g>
  <g id="axes_1">
   <g id="patch_2">
    <path d="M 45.371875 381.526731 
L 849.571875 381.526731 
L 849.571875 12.518906 
L 45.371875 12.518906 
z
" style="fill: #ffffff"/>
   </g>
   <g id="patch_3">
    <path d="M 81.92642 381.526731 
L 124.931768 381.526731 
L 124.931768 328.643992 
L 81.92642 328.643992 
z
" clip-path="url(#p5e8ecbff27)" style="fill: url(#hcd03fd75a8); stroke: #000000; stroke-width: 0.7; stroke-linejoin: miter"/>
   </g>
   <g id="patch_4">
    <path d="M 124.931768 381.526731 
L 167.937116 381.526731 
L 167.937116 370.950183 
L 124.931768 370.950183 
z
" clip-path="url(#p5e8ecbff27)" style="fill: url(#hcd03fd75a8); stroke: #000000; stroke-width: 0.7; stroke-linejoin: miter"/>
   </g>
   <g id="patch_5">
    <path d="M 167.937116 381.526731 
L 210.942463 381.526731 
L 210.942463 380.204662 
L 167.937116 380.204662 
z
" clip-path="url(#p5e8ecbff27)" style="fill: url(#hcd03fd75a8); stroke: #000000; stroke-width: 0.7; stroke-linejoin: miter"/>
   </g>
   <g id="patch_6">
    <path d="M 210.942463 381.526731 
L 253.947811 381.526731 
L 253.947811 380.865697 
L 210.942463 380.865697 
z
" clip-path="url(#p5e8ecbff27)" style="fill: url(#hcd03fd75a8); stroke: #000000; stroke-width: 0.7; stroke-linejoin: miter"/>
   </g>
   <g id="patch_7">
    <path d="M 361.46118 381.526731 
L 404.466527 381.526731 
L 404.466527 362.488945 
L 361.46118 362.488945 
z
" clip-path="url(#p5e8ecbff27)" style="fill: url(#hcd03fd75a8); stroke: #000000; stroke-width: 0.7; stroke-linejoin: miter"/>
   </g>
   <g id="patch_8">
    <path d="M 404.466527 381.526731 
L 447.471875 381.526731 
L 447.471875 375.180802 
L 404.466527 375.180802 
z
" clip-path="url(#p5e8ecbff27)" style="fill: url(#hcd03fd75a8); stroke: #000000; stroke-width: 0.7; stroke-linejoin: miter"/>
   </g>
   <g id="patch_9">
    <path d="M 447.471875 381.526731 
L 490.477223 381.526731 
L 490.477223 381.050786 
L 447.471875 381.050786 
z
" clip-path="url(#p5e8ecbff27)" style="fill: url(#hcd03fd75a8); stroke: #000000; stroke-width: 0.7; stroke-linejoin: miter"/>
   </g>
   <g id="patch_10">
    <path d="M 490.477223 381.526731 
L 533.48257 381.526731 
L 533.48257 381.288758 
L 490.477223 381.288758 
z
" clip-path="url(#p5e8ecbff27)" style="fill: url(#hcd03fd75a8); stroke: #000000; stroke-width: 0.7; stroke-linejoin: miter"/>
   </g>
   <g id="patch_11">
    <path d="M 640.995939 381.526731 
L 684.001287 381.526731 
L 684.001287 371.813575 
L 640.995939 371.813575 
z
" clip-path="url(#p5e8ecbff27)" style="fill: url(#hcd03fd75a8); stroke: #000000; stroke-width: 0.7; stroke-linejoin: miter"/>
   </g>
   <g id="patch_12">
    <path d="M 684.001287 381.526731 
L 727.006634 381.526731 
L 727.006634 379.5841 
L 684.001287 379.5841 
z
" clip-path="url(#p5e8ecbff27)" style="fill: url(#hcd03fd75a8); stroke: #000000; stroke-width: 0.7; stroke-linejoin: miter"/>
   </g>
   <g id="patch_13">
    <path d="M 727.006634 381.526731 
L 770.011982 381.526731 
L 770.011982 381.283902 
L 727.006634 381.283902 
z
" clip-path="url(#p5e8ecbff27)" style="fill: url(#hcd03fd75a8); stroke: #000000; stroke-width: 0.7; stroke-linejoin: miter"/>
   </g>
   <g id="patch_14">
    <path d="M 770.011982 381.526731 
L 813.01733 381.526731 
L 813.01733 381.405316 
L 770.011982 381.405316 
z
" clip-path="url(#p5e8ecbff27)" style="fill: url(#hcd03fd75a8); stroke: #000000; stroke-width: 0.7; stroke-linejoin: miter"/>
   </g>
   <g id="patch_15">
    <path d="M 81.92642 328.643992 
L 124.931768 328.643992 
L 124.931768 225.608198 
L 81.92642 225.608198 
z
" clip-path="url(#p5e8ecbff27)" style="fill: url(#h8f6085ae86); stroke: #000000; stroke-width: 0.7; stroke-linejoin: miter"/>
   </g>
   <g id="patch_16">
    <path d="M 124.931768 370.950183 
L 167.937116 370.950183 
L 167.937116 350.343024 
L 124.931768 350.343024 
z
" clip-path="url(#p5e8ecbff27)" style="fill: url(#h8f6085ae86); stroke: #000000; stroke-width: 0.7; stroke-linejoin: miter"/>
   </g>
   <g id="patch_17">
    <path d="M 167.937116 380.204662 
L 210.942463 380.204662 
L 210.942463 377.628767 
L 167.937116 377.628767 
z
" clip-path="url(#p5e8ecbff27)" style="fill: url(#h8f6085ae86); stroke: #000000; stroke-width: 0.7; stroke-linejoin: miter"/>
   </g>
   <g id="patch_18">
    <path d="M 210.942463 380.865697 
L 253.947811 380.865697 
L 253.947811 379.577749 
L 210.942463 379.577749 
z
" clip-path="url(#p5e8ecbff27)" style="fill: url(#h8f6085ae86); stroke: #000000; stroke-width: 0.7; stroke-linejoin: miter"/>
   </g>
   <g id="patch_19">
    <path d="M 361.46118 362.488945 
L 404.466527 362.488945 
L 404.466527 325.396059 
L 361.46118 325.396059 
z
" clip-path="url(#p5e8ecbff27)" style="fill: url(#h8f6085ae86); stroke: #000000; stroke-width: 0.7; stroke-linejoin: miter"/>
   </g>
   <g id="patch_20">
    <path d="M 404.466527 375.180802 
L 447.471875 375.180802 
L 447.471875 362.816507 
L 404.466527 362.816507 
z
" clip-path="url(#p5e8ecbff27)" style="fill: url(#h8f6085ae86); stroke: #000000; stroke-width: 0.7; stroke-linejoin: miter"/>
   </g>
   <g id="patch_21">
    <path d="M 447.471875 381.050786 
L 490.477223 381.050786 
L 490.477223 380.123464 
L 447.471875 380.123464 
z
" clip-path="url(#p5e8ecbff27)" style="fill: url(#h8f6085ae86); stroke: #000000; stroke-width: 0.7; stroke-linejoin: miter"/>
   </g>
   <g id="patch_22">
    <path d="M 490.477223 381.288758 
L 533.48257 381.288758 
L 533.48257 380.825097 
L 490.477223 380.825097 
z
" clip-path="url(#p5e8ecbff27)" style="fill: url(#h8f6085ae86); stroke: #000000; stroke-width: 0.7; stroke-linejoin: miter"/>
   </g>
   <g id="patch_23">
    <path d="M 640.995939 371.813575 
L 684.001287 371.813575 
L 684.001287 352.888633 
L 640.995939 352.888633 
z
" clip-path="url(#p5e8ecbff27)" style="fill: url(#h8f6085ae86); stroke: #000000; stroke-width: 0.7; stroke-linejoin: miter"/>
   </g>
   <g id="patch_24">
    <path d="M 684.001287 379.5841 
L 727.006634 379.5841 
L 727.006634 375.799111 
L 684.001287 375.799111 
z
" clip-path="url(#p5e8ecbff27)" style="fill: url(#h8f6085ae86); stroke: #000000; stroke-width: 0.7; stroke-linejoin: miter"/>
   </g>
   <g id="patch_25">
    <path d="M 727.006634 381.283902 
L 770.011982 381.283902 
L 770.011982 380.810778 
L 727.006634 380.810778 
z
" clip-path="url(#p5e8ecbff27)" style="fill: url(#h8f6085ae86); stroke: #000000; stroke-width: 0.7; stroke-linejoin: miter"/>
   </g>
   <g id="patch_26">
    <path d="M 770.011982 381.405316 
L 813.01733 381.405316 
L 813.01733 381.168755 
L 770.011982 381.168755 
z
" clip-path="url(#p5e8ecbff27)" style="fill: url(#h8f6085ae86); stroke: #000000; stroke-width: 0.7; stroke-linejoin: miter"/>
   </g>
   <g id="patch_27">
    <path d="M 81.92642 225.608198 
L 124.931768 225.608198 
L 124.931768 39.982502 
L 81.92642 39.982502 
z
" clip-path="url(#p5e8ecbff27)" style="fill: #b3d4ff; stroke: #000000; stroke-width: 0.7; stroke-linejoin: miter"/>
   </g>
   <g id="patch_28">
    <path d="M 124.931768 350.343024 
L 167.937116 350.343024 
L 167.937116 164.717328 
L 124.931768 164.717328 
z
" clip-path="url(#p5e8ecbff27)" style="fill: #b3d4ff; stroke: #000000; stroke-width: 0.7; stroke-linejoin: miter"/>
   </g>
   <g id="patch_29">
    <path d="M 167.937116 377.628767 
L 210.942463 377.628767 
L 210.942463 192.003071 
L 167.937116 192.003071 
z
" clip-path="url(#p5e8ecbff27)" style="fill: #b3d4ff; stroke: #000000; stroke-width: 0.7; stroke-linejoin: miter"/>
   </g>
   <g id="patch_30">
    <path d="M 210.942463 379.577749 
L 253.947811 379.577749 
L 253.947811 193.952053 
L 210.942463 193.952053 
z
" clip-path="url(#p5e8ecbff27)" style="fill: #b3d4ff; stroke: #000000; stroke-width: 0.7; stroke-linejoin: miter"/>
   </g>
   <g id="patch_31">
    <path d="M 361.46118 325.396059 
L 404.466527 325.396059 
L 404.466527 214.020641 
L 361.46118 214.020641 
z
" clip-path="url(#p5e8ecbff27)" style="fill: #b3d4ff; stroke: #000000; stroke-width: 0.7; stroke-linejoin: miter"/>
   </g>
   <g id="patch_32">
    <path d="M 404.466527 362.816507 
L 447.471875 362.816507 
L 447.471875 251.441089 
L 404.466527 251.441089 
z
" clip-path="url(#p5e8ecbff27)" style="fill: #b3d4ff; stroke: #000000; stroke-width: 0.7; stroke-linejoin: miter"/>
   </g>
   <g id="patch_33">
    <path d="M 447.471875 380.123464 
L 490.477223 380.123464 
L 490.477223 268.748046 
L 447.471875 268.748046 
z
" clip-path="url(#p5e8ecbff27)" style="fill: #b3d4ff; stroke: #000000; stroke-width: 0.7; stroke-linejoin: miter"/>
   </g>
   <g id="patch_34">
    <path d="M 490.477223 380.825097 
L 533.48257 380.825097 
L 533.48257 269.44968 
L 490.477223 269.44968 
z
" clip-path="url(#p5e8ecbff27)" style="fill: #b3d4ff; stroke: #000000; stroke-width: 0.7; stroke-linejoin: miter"/>
   </g>
   <g id="patch_35">
    <path d="M 640.995939 352.888633 
L 684.001287 352.888633 
L 684.001287 273.334763 
L 640.995939 273.334763 
z
" clip-path="url(#p5e8ecbff27)" style="fill: #b3d4ff; stroke: #000000; stroke-width: 0.7; stroke-linejoin: miter"/>
   </g>
   <g id="patch_36">
    <path d="M 684.001287 375.799111 
L 727.006634 375.799111 
L 727.006634 296.245241 
L 684.001287 296.245241 
z
" clip-path="url(#p5e8ecbff27)" style="fill: #b3d4ff; stroke: #000000; stroke-width: 0.7; stroke-linejoin: miter"/>
   </g>
   <g id="patch_37">
    <path d="M 727.006634 380.810778 
L 770.011982 380.810778 
L 770.011982 301.256909 
L 727.006634 301.256909 
z
" clip-path="url(#p5e8ecbff27)" style="fill: #b3d4ff; stroke: #000000; stroke-width: 0.7; stroke-linejoin: miter"/>
   </g>
   <g id="patch_38">
    <path d="M 770.011982 381.168755 
L 813.01733 381.168755 
L 813.01733 301.614885 
L 770.011982 301.614885 
z
" clip-path="url(#p5e8ecbff27)" style="fill: #b3d4ff; stroke: #000000; stroke-width: 0.7; stroke-linejoin: miter"/>
   </g>
   <g id="matplotlib.axis_1">
    <g id="xtick_1"/>
    <g id="xtick_2"/>
    <g id="xtick_3"/>
   </g>
   <g id="matplotlib.axis_2">
    <g id="ytick_1">
     <g id="line2d_1">
      <defs>
       <path id="m9f277195f1" d="M 0 0 
L -3.5 0 
" style="stroke: #000000; stroke-width: 0.8"/>
      </defs>
      <g>
       <use xlink:href="#m9f277195f1" x="45.371875" y="381.526731" style="stroke: #000000; stroke-width: 0.8"/>
      </g>
     </g>
     <g id="text_1">
      <!-- 0.00 -->
      <g transform="translate(7.2 386.845637) scale(0.14 -0.14)">
       <defs>
        <path id="DejaVuSans-30" d="M 2034 4250 
Q 1547 4250 1301 3770 
Q 1056 3291 1056 2328 
Q 1056 1369 1301 889 
Q 1547 409 2034 409 
Q 2525 409 2770 889 
Q 3016 1369 3016 2328 
Q 3016 3291 2770 3770 
Q 2525 4250 2034 4250 
z
M 2034 4750 
Q 2819 4750 3233 4129 
Q 3647 3509 3647 2328 
Q 3647 1150 3233 529 
Q 2819 -91 2034 -91 
Q 1250 -91 836 529 
Q 422 1150 422 2328 
Q 422 3509 836 4129 
Q 1250 4750 2034 4750 
z
" transform="scale(0.015625)"/>
        <path id="DejaVuSans-2e" d="M 684 794 
L 1344 794 
L 1344 0 
L 684 0 
L 684 794 
z
" transform="scale(0.015625)"/>
       </defs>
       <use xlink:href="#DejaVuSans-30"/>
       <use xlink:href="#DejaVuSans-2e" x="63.623047"/>
       <use xlink:href="#DejaVuSans-30" x="95.410156"/>
       <use xlink:href="#DejaVuSans-30" x="159.033203"/>
      </g>
     </g>
    </g>
    <g id="ytick_2">
     <g id="line2d_2">
      <g>
       <use xlink:href="#m9f277195f1" x="45.371875" y="328.811327" style="stroke: #000000; stroke-width: 0.8"/>
      </g>
     </g>
     <g id="text_2">
      <!-- 0.05 -->
      <g transform="translate(7.2 334.130234) scale(0.14 -0.14)">
       <defs>
        <path id="DejaVuSans-35" d="M 691 4666 
L 3169 4666 
L 3169 4134 
L 1269 4134 
L 1269 2991 
Q 1406 3038 1543 3061 
Q 1681 3084 1819 3084 
Q 2600 3084 3056 2656 
Q 3513 2228 3513 1497 
Q 3513 744 3044 326 
Q 2575 -91 1722 -91 
Q 1428 -91 1123 -41 
Q 819 9 494 109 
L 494 744 
Q 775 591 1075 516 
Q 1375 441 1709 441 
Q 2250 441 2565 725 
Q 2881 1009 2881 1497 
Q 2881 1984 2565 2268 
Q 2250 2553 1709 2553 
Q 1456 2553 1204 2497 
Q 953 2441 691 2322 
L 691 4666 
z
" transform="scale(0.015625)"/>
       </defs>
       <use xlink:href="#DejaVuSans-30"/>
       <use xlink:href="#DejaVuSans-2e" x="63.623047"/>
       <use xlink:href="#DejaVuSans-30" x="95.410156"/>
       <use xlink:href="#DejaVuSans-35" x="159.033203"/>
      </g>
     </g>
    </g>
    <g id="ytick_3">
     <g id="line2d_3">
      <g>
       <use xlink:href="#m9f277195f1" x="45.371875" y="276.095924" style="stroke: #000000; stroke-width: 0.8"/>
      </g>
     </g>
     <g id="text_3">
      <!-- 0.10 -->
      <g transform="translate(7.2 281.41483) scale(0.14 -0.14)">
       <defs>
        <path id="DejaVuSans-31" d="M 794 531 
L 1825 531 
L 1825 4091 
L 703 3866 
L 703 4441 
L 1819 4666 
L 2450 4666 
L 2450 531 
L 3481 531 
L 3481 0 
L 794 0 
L 794 531 
z
" transform="scale(0.015625)"/>
       </defs>
       <use xlink:href="#DejaVuSans-30"/>
       <use xlink:href="#DejaVuSans-2e" x="63.623047"/>
       <use xlink:href="#DejaVuSans-31" x="95.410156"/>
       <use xlink:href="#DejaVuSans-30" x="159.033203"/>
      </g>
     </g>
    </g>
    <g id="ytick_4">
     <g id="line2d_4">
      <g>
       <use xlink:href="#m9f277195f1" x="45.371875" y="223.38052" style="stroke: #000000; stroke-width: 0.8"/>
      </g>
     </g>
     <g id="text_4">
      <!-- 0.15 -->
      <g transform="translate(7.2 228.699427) scale(0.14 -0.14)">
       <use xlink:href="#DejaVuSans-30"/>
       <use xlink:href="#DejaVuSans-2e" x="63.623047"/>
       <use xlink:href="#DejaVuSans-31" x="95.410156"/>
       <use xlink:href="#DejaVuSans-35" x="159.033203"/>
      </g>
     </g>
    </g>
    <g id="ytick_5">
     <g id="line2d_5">
      <g>
       <use xlink:href="#m9f277195f1" x="45.371875" y="170.665117" style="stroke: #000000; stroke-width: 0.8"/>
      </g>
     </g>
     <g id="text_5">
      <!-- 0.20 -->
      <g transform="translate(7.2 175.984023) scale(0.14 -0.14)">
       <defs>
        <path id="DejaVuSans-32" d="M 1228 531 
L 3431 531 
L 3431 0 
L 469 0 
L 469 531 
Q 828 903 1448 1529 
Q 2069 2156 2228 2338 
Q 2531 2678 2651 2914 
Q 2772 3150 2772 3378 
Q 2772 3750 2511 3984 
Q 2250 4219 1831 4219 
Q 1534 4219 1204 4116 
Q 875 4013 500 3803 
L 500 4441 
Q 881 4594 1212 4672 
Q 1544 4750 1819 4750 
Q 2544 4750 2975 4387 
Q 3406 4025 3406 3419 
Q 3406 3131 3298 2873 
Q 3191 2616 2906 2266 
Q 2828 2175 2409 1742 
Q 1991 1309 1228 531 
z
" transform="scale(0.015625)"/>
       </defs>
       <use xlink:href="#DejaVuSans-30"/>
       <use xlink:href="#DejaVuSans-2e" x="63.623047"/>
       <use xlink:href="#DejaVuSans-32" x="95.410156"/>
       <use xlink:href="#DejaVuSans-30" x="159.033203"/>
      </g>
     </g>
    </g>
    <g id="ytick_6">
     <g id="line2d_6">
      <g>
       <use xlink:href="#m9f277195f1" x="45.371875" y="117.949713" style="stroke: #000000; stroke-width: 0.8"/>
      </g>
     </g>
     <g id="text_6">
      <!-- 0.25 -->
      <g transform="translate(7.2 123.26862) scale(0.14 -0.14)">
       <use xlink:href="#DejaVuSans-30"/>
       <use xlink:href="#DejaVuSans-2e" x="63.623047"/>
       <use xlink:href="#DejaVuSans-32" x="95.410156"/>
       <use xlink:href="#DejaVuSans-35" x="159.033203"/>
      </g>
     </g>
    </g>
    <g id="ytick_7">
     <g id="line2d_7">
      <g>
       <use xlink:href="#m9f277195f1" x="45.371875" y="65.23431" style="stroke: #000000; stroke-width: 0.8"/>
      </g>
     </g>
     <g id="text_7">
      <!-- 0.30 -->
      <g transform="translate(7.2 70.553216) scale(0.14 -0.14)">
       <defs>
        <path id="DejaVuSans-33" d="M 2597 2516 
Q 3050 2419 3304 2112 
Q 3559 1806 3559 1356 
Q 3559 666 3084 287 
Q 2609 -91 1734 -91 
Q 1441 -91 1130 -33 
Q 819 25 488 141 
L 488 750 
Q 750 597 1062 519 
Q 1375 441 1716 441 
Q 2309 441 2620 675 
Q 2931 909 2931 1356 
Q 2931 1769 2642 2001 
Q 2353 2234 1838 2234 
L 1294 2234 
L 1294 2753 
L 1863 2753 
Q 2328 2753 2575 2939 
Q 2822 3125 2822 3475 
Q 2822 3834 2567 4026 
Q 2313 4219 1838 4219 
Q 1578 4219 1281 4162 
Q 984 4106 628 3988 
L 628 4550 
Q 988 4650 1302 4700 
Q 1616 4750 1894 4750 
Q 2613 4750 3031 4423 
Q 3450 4097 3450 3541 
Q 3450 3153 3228 2886 
Q 3006 2619 2597 2516 
z
" transform="scale(0.015625)"/>
       </defs>
       <use xlink:href="#DejaVuSans-30"/>
       <use xlink:href="#DejaVuSans-2e" x="63.623047"/>
       <use xlink:href="#DejaVuSans-33" x="95.410156"/>
       <use xlink:href="#DejaVuSans-30" x="159.033203"/>
      </g>
     </g>
    </g>
    <g id="ytick_8">
     <g id="line2d_8">
      <g>
       <use xlink:href="#m9f277195f1" x="45.371875" y="12.518906" style="stroke: #000000; stroke-width: 0.8"/>
      </g>
     </g>
     <g id="text_8">
      <!-- 0.35 -->
      <g transform="translate(7.2 17.837812) scale(0.14 -0.14)">
       <use xlink:href="#DejaVuSans-30"/>
       <use xlink:href="#DejaVuSans-2e" x="63.623047"/>
       <use xlink:href="#DejaVuSans-33" x="95.410156"/>
       <use xlink:href="#DejaVuSans-35" x="159.033203"/>
      </g>
     </g>
    </g>
    <g id="ytick_9">
     <g id="line2d_9">
      <defs>
       <path id="m5525cdab46" d="M 0 0 
L -2 0 
" style="stroke: #000000; stroke-width: 0.6"/>
      </defs>
      <g>
       <use xlink:href="#m5525cdab46" x="45.371875" y="355.169029" style="stroke: #000000; stroke-width: 0.6"/>
      </g>
     </g>
    </g>
    <g id="ytick_10">
     <g id="line2d_10">
      <g>
       <use xlink:href="#m5525cdab46" x="45.371875" y="302.453626" style="stroke: #000000; stroke-width: 0.6"/>
      </g>
     </g>
    </g>
    <g id="ytick_11">
     <g id="line2d_11">
      <g>
       <use xlink:href="#m5525cdab46" x="45.371875" y="249.738222" style="stroke: #000000; stroke-width: 0.6"/>
      </g>
     </g>
    </g>
    <g id="ytick_12">
     <g id="line2d_12">
      <g>
       <use xlink:href="#m5525cdab46" x="45.371875" y="197.022819" style="stroke: #000000; stroke-width: 0.6"/>
      </g>
     </g>
    </g>
    <g id="ytick_13">
     <g id="line2d_13">
      <g>
       <use xlink:href="#m5525cdab46" x="45.371875" y="144.307415" style="stroke: #000000; stroke-width: 0.6"/>
      </g>
     </g>
    </g>
    <g id="ytick_14">
     <g id="line2d_14">
      <g>
       <use xlink:href="#m5525cdab46" x="45.371875" y="91.592012" style="stroke: #000000; stroke-width: 0.6"/>
      </g>
     </g>
    </g>
    <g id="ytick_15">
     <g id="line2d_15">
      <g>
       <use xlink:href="#m5525cdab46" x="45.371875" y="38.876608" style="stroke: #000000; stroke-width: 0.6"/>
      </g>
     </g>
    </g>
   </g>
   <g id="patch_39">
    <path d="M 45.371875 381.526731 
L 45.371875 12.518906 
" style="fill: none; stroke: #000000; stroke-width: 0.8; stroke-linejoin: miter; stroke-linecap: square"/>
   </g>
   <g id="patch_40">
    <path d="M 849.571875 381.526731 
L 849.571875 12.518906 
" style="fill: none; stroke: #000000; stroke-width: 0.8; stroke-linejoin: miter; stroke-linecap: square"/>
   </g>
   <g id="patch_41">
    <path d="M 45.371875 381.526731 
L 849.571875 381.526731 
" style="fill: none; stroke: #000000; stroke-width: 0.8; stroke-linejoin: miter; stroke-linecap: square"/>
   </g>
   <g id="patch_42">
    <path d="M 45.371875 12.518906 
L 849.571875 12.518906 
" style="fill: none; stroke: #000000; stroke-width: 0.8; stroke-linejoin: miter; stroke-linecap: square"/>
   </g>
   <g id="text_9">
    <!-- ε=1 -->
    <g transform="translate(99.291636 414.299061) rotate(-45) scale(0.08 -0.08)">
     <defs>
      <path id="DejaVuSans-3b5" d="M 1234 1888 
Q 884 1963 697 2166 
Q 509 2366 509 2656 
Q 509 3097 866 3344 
Q 1219 3588 1831 3588 
Q 2069 3588 2334 3550 
Q 2600 3513 2906 3438 
L 2906 2916 
Q 2603 3006 2353 3047 
Q 2100 3088 1878 3088 
Q 1506 3088 1291 2944 
Q 1072 2800 1072 2600 
Q 1072 2381 1284 2241 
Q 1494 2103 1856 2103 
L 2341 2103 
L 2341 1628 
L 1878 1628 
Q 1450 1628 1225 1469 
Q 981 1294 981 1019 
Q 981 738 1244 563 
Q 1509 388 1981 388 
Q 2272 388 2538 444 
Q 2803 503 3025 619 
L 3025 84 
Q 2744 -3 2481 -47 
Q 2216 -91 1966 -91 
Q 1222 -91 819 194 
Q 416 478 416 1019 
Q 416 1356 631 1584 
Q 847 1813 1234 1888 
z
" transform="scale(0.015625)"/>
      <path id="DejaVuSans-3d" d="M 678 2906 
L 4684 2906 
L 4684 2381 
L 678 2381 
L 678 2906 
z
M 678 1631 
L 4684 1631 
L 4684 1100 
L 678 1100 
L 678 1631 
z
" transform="scale(0.015625)"/>
     </defs>
     <use xlink:href="#DejaVuSans-3b5"/>
     <use xlink:href="#DejaVuSans-3d" x="54.052734"/>
     <use xlink:href="#DejaVuSans-31" x="137.841797"/>
    </g>
   </g>
   <g id="text_10">
    <!-- ε=5 -->
    <g transform="translate(142.296983 414.299061) rotate(-45) scale(0.08 -0.08)">
     <use xlink:href="#DejaVuSans-3b5"/>
     <use xlink:href="#DejaVuSans-3d" x="54.052734"/>
     <use xlink:href="#DejaVuSans-35" x="137.841797"/>
    </g>
   </g>
   <g id="text_11">
    <!-- ε=40 -->
    <g transform="translate(183.502744 417.898235) rotate(-45) scale(0.08 -0.08)">
     <defs>
      <path id="DejaVuSans-34" d="M 2419 4116 
L 825 1625 
L 2419 1625 
L 2419 4116 
z
M 2253 4666 
L 3047 4666 
L 3047 1625 
L 3713 1625 
L 3713 1100 
L 3047 1100 
L 3047 0 
L 2419 0 
L 2419 1100 
L 313 1100 
L 313 1709 
L 2253 4666 
z
" transform="scale(0.015625)"/>
     </defs>
     <use xlink:href="#DejaVuSans-3b5"/>
     <use xlink:href="#DejaVuSans-3d" x="54.052734"/>
     <use xlink:href="#DejaVuSans-34" x="137.841797"/>
     <use xlink:href="#DejaVuSans-30" x="201.464844"/>
    </g>
   </g>
   <g id="text_12">
    <!-- ε=80 -->
    <g transform="translate(226.508092 417.898235) rotate(-45) scale(0.08 -0.08)">
     <defs>
      <path id="DejaVuSans-38" d="M 2034 2216 
Q 1584 2216 1326 1975 
Q 1069 1734 1069 1313 
Q 1069 891 1326 650 
Q 1584 409 2034 409 
Q 2484 409 2743 651 
Q 3003 894 3003 1313 
Q 3003 1734 2745 1975 
Q 2488 2216 2034 2216 
z
M 1403 2484 
Q 997 2584 770 2862 
Q 544 3141 544 3541 
Q 544 4100 942 4425 
Q 1341 4750 2034 4750 
Q 2731 4750 3128 4425 
Q 3525 4100 3525 3541 
Q 3525 3141 3298 2862 
Q 3072 2584 2669 2484 
Q 3125 2378 3379 2068 
Q 3634 1759 3634 1313 
Q 3634 634 3220 271 
Q 2806 -91 2034 -91 
Q 1263 -91 848 271 
Q 434 634 434 1313 
Q 434 1759 690 2068 
Q 947 2378 1403 2484 
z
M 1172 3481 
Q 1172 3119 1398 2916 
Q 1625 2713 2034 2713 
Q 2441 2713 2670 2916 
Q 2900 3119 2900 3481 
Q 2900 3844 2670 4047 
Q 2441 4250 2034 4250 
Q 1625 4250 1398 4047 
Q 1172 3844 1172 3481 
z
" transform="scale(0.015625)"/>
     </defs>
     <use xlink:href="#DejaVuSans-3b5"/>
     <use xlink:href="#DejaVuSans-3d" x="54.052734"/>
     <use xlink:href="#DejaVuSans-38" x="137.841797"/>
     <use xlink:href="#DejaVuSans-30" x="201.464844"/>
    </g>
   </g>
   <g id="text_13">
    <!-- ε=1 -->
    <g transform="translate(378.826395 414.299061) rotate(-45) scale(0.08 -0.08)">
     <use xlink:href="#DejaVuSans-3b5"/>
     <use xlink:href="#DejaVuSans-3d" x="54.052734"/>
     <use xlink:href="#DejaVuSans-31" x="137.841797"/>
    </g>
   </g>
   <g id="text_14">
    <!-- ε=3 -->
    <g transform="translate(421.831743 414.299061) rotate(-45) scale(0.08 -0.08)">
     <use xlink:href="#DejaVuSans-3b5"/>
     <use xlink:href="#DejaVuSans-3d" x="54.052734"/>
     <use xlink:href="#DejaVuSans-33" x="137.841797"/>
    </g>
   </g>
   <g id="text_15">
    <!-- ε=40 -->
    <g transform="translate(463.037503 417.898235) rotate(-45) scale(0.08 -0.08)">
     <use xlink:href="#DejaVuSans-3b5"/>
     <use xlink:href="#DejaVuSans-3d" x="54.052734"/>
     <use xlink:href="#DejaVuSans-34" x="137.841797"/>
     <use xlink:href="#DejaVuSans-30" x="201.464844"/>
    </g>
   </g>
   <g id="text_16">
    <!-- ε=80 -->
    <g transform="translate(506.042851 417.898235) rotate(-45) scale(0.08 -0.08)">
     <use xlink:href="#DejaVuSans-3b5"/>
     <use xlink:href="#DejaVuSans-3d" x="54.052734"/>
     <use xlink:href="#DejaVuSans-38" x="137.841797"/>
     <use xlink:href="#DejaVuSans-30" x="201.464844"/>
    </g>
   </g>
   <g id="text_17">
    <!-- ε=1 -->
    <g transform="translate(658.361154 414.299061) rotate(-45) scale(0.08 -0.08)">
     <use xlink:href="#DejaVuSans-3b5"/>
     <use xlink:href="#DejaVuSans-3d" x="54.052734"/>
     <use xlink:href="#DejaVuSans-31" x="137.841797"/>
    </g>
   </g>
   <g id="text_18">
    <!-- ε=5 -->
    <g transform="translate(701.366502 414.299061) rotate(-45) scale(0.08 -0.08)">
     <use xlink:href="#DejaVuSans-3b5"/>
     <use xlink:href="#DejaVuSans-3d" x="54.052734"/>
     <use xlink:href="#DejaVuSans-35" x="137.841797"/>
    </g>
   </g>
   <g id="text_19">
    <!-- ε=40 -->
    <g transform="translate(742.572263 417.898235) rotate(-45) scale(0.08 -0.08)">
     <use xlink:href="#DejaVuSans-3b5"/>
     <use xlink:href="#DejaVuSans-3d" x="54.052734"/>
     <use xlink:href="#DejaVuSans-34" x="137.841797"/>
     <use xlink:href="#DejaVuSans-30" x="201.464844"/>
    </g>
   </g>
   <g id="text_20">
    <!-- ε=80 -->
    <g transform="translate(785.57761 417.898235) rotate(-45) scale(0.08 -0.08)">
     <use xlink:href="#DejaVuSans-3b5"/>
     <use xlink:href="#DejaVuSans-3d" x="54.052734"/>
     <use xlink:href="#DejaVuSans-38" x="137.841797"/>
     <use xlink:href="#DejaVuSans-30" x="201.464844"/>
    </g>
   </g>
   <g id="legend_1">
    <g id="patch_43">
     <path d="M 626.521875 64.553281 
L 842.571875 64.553281 
Q 844.571875 64.553281 844.571875 62.553281 
L 844.571875 19.518906 
Q 844.571875 17.518906 842.571875 17.518906 
L 626.521875 17.518906 
Q 624.521875 17.518906 624.521875 19.518906 
L 624.521875 62.553281 
Q 624.521875 64.553281 626.521875 64.553281 
z
" style="fill: #ffffff; opacity: 0.8; stroke: #cccccc; stroke-linejoin: miter"/>
    </g>
    <g id="patch_44">
     <path d="M 628.521875 29.117344 
L 648.521875 29.117344 
L 648.521875 22.117344 
L 628.521875 22.117344 
z
" style="fill: url(#hcd03fd75a8); stroke: #000000; stroke-width: 0.7; stroke-linejoin: miter"/>
    </g>
    <g id="text_21">
     <!-- Term 3 (Transition State Polarization) -->
     <g transform="translate(656.521875 29.117344) scale(0.1 -0.1)">
      <defs>
       <path id="DejaVuSans-54" d="M -19 4666 
L 3928 4666 
L 3928 4134 
L 2272 4134 
L 2272 0 
L 1638 0 
L 1638 4134 
L -19 4134 
L -19 4666 
z
" transform="scale(0.015625)"/>
       <path id="DejaVuSans-65" d="M 3597 1894 
L 3597 1613 
L 953 1613 
Q 991 1019 1311 708 
Q 1631 397 2203 397 
Q 2534 397 2845 478 
Q 3156 559 3463 722 
L 3463 178 
Q 3153 47 2828 -22 
Q 2503 -91 2169 -91 
Q 1331 -91 842 396 
Q 353 884 353 1716 
Q 353 2575 817 3079 
Q 1281 3584 2069 3584 
Q 2775 3584 3186 3129 
Q 3597 2675 3597 1894 
z
M 3022 2063 
Q 3016 2534 2758 2815 
Q 2500 3097 2075 3097 
Q 1594 3097 1305 2825 
Q 1016 2553 972 2059 
L 3022 2063 
z
" transform="scale(0.015625)"/>
       <path id="DejaVuSans-72" d="M 2631 2963 
Q 2534 3019 2420 3045 
Q 2306 3072 2169 3072 
Q 1681 3072 1420 2755 
Q 1159 2438 1159 1844 
L 1159 0 
L 581 0 
L 581 3500 
L 1159 3500 
L 1159 2956 
Q 1341 3275 1631 3429 
Q 1922 3584 2338 3584 
Q 2397 3584 2469 3576 
Q 2541 3569 2628 3553 
L 2631 2963 
z
" transform="scale(0.015625)"/>
       <path id="DejaVuSans-6d" d="M 3328 2828 
Q 3544 3216 3844 3400 
Q 4144 3584 4550 3584 
Q 5097 3584 5394 3201 
Q 5691 2819 5691 2113 
L 5691 0 
L 5113 0 
L 5113 2094 
Q 5113 2597 4934 2840 
Q 4756 3084 4391 3084 
Q 3944 3084 3684 2787 
Q 3425 2491 3425 1978 
L 3425 0 
L 2847 0 
L 2847 2094 
Q 2847 2600 2669 2842 
Q 2491 3084 2119 3084 
Q 1678 3084 1418 2786 
Q 1159 2488 1159 1978 
L 1159 0 
L 581 0 
L 581 3500 
L 1159 3500 
L 1159 2956 
Q 1356 3278 1631 3431 
Q 1906 3584 2284 3584 
Q 2666 3584 2933 3390 
Q 3200 3197 3328 2828 
z
" transform="scale(0.015625)"/>
       <path id="DejaVuSans-20" transform="scale(0.015625)"/>
       <path id="DejaVuSans-28" d="M 1984 4856 
Q 1566 4138 1362 3434 
Q 1159 2731 1159 2009 
Q 1159 1288 1364 580 
Q 1569 -128 1984 -844 
L 1484 -844 
Q 1016 -109 783 600 
Q 550 1309 550 2009 
Q 550 2706 781 3412 
Q 1013 4119 1484 4856 
L 1984 4856 
z
" transform="scale(0.015625)"/>
       <path id="DejaVuSans-61" d="M 2194 1759 
Q 1497 1759 1228 1600 
Q 959 1441 959 1056 
Q 959 750 1161 570 
Q 1363 391 1709 391 
Q 2188 391 2477 730 
Q 2766 1069 2766 1631 
L 2766 1759 
L 2194 1759 
z
M 3341 1997 
L 3341 0 
L 2766 0 
L 2766 531 
Q 2569 213 2275 61 
Q 1981 -91 1556 -91 
Q 1019 -91 701 211 
Q 384 513 384 1019 
Q 384 1609 779 1909 
Q 1175 2209 1959 2209 
L 2766 2209 
L 2766 2266 
Q 2766 2663 2505 2880 
Q 2244 3097 1772 3097 
Q 1472 3097 1187 3025 
Q 903 2953 641 2809 
L 641 3341 
Q 956 3463 1253 3523 
Q 1550 3584 1831 3584 
Q 2591 3584 2966 3190 
Q 3341 2797 3341 1997 
z
" transform="scale(0.015625)"/>
       <path id="DejaVuSans-6e" d="M 3513 2113 
L 3513 0 
L 2938 0 
L 2938 2094 
Q 2938 2591 2744 2837 
Q 2550 3084 2163 3084 
Q 1697 3084 1428 2787 
Q 1159 2491 1159 1978 
L 1159 0 
L 581 0 
L 581 3500 
L 1159 3500 
L 1159 2956 
Q 1366 3272 1645 3428 
Q 1925 3584 2291 3584 
Q 2894 3584 3203 3211 
Q 3513 2838 3513 2113 
z
" transform="scale(0.015625)"/>
       <path id="DejaVuSans-73" d="M 2834 3397 
L 2834 2853 
Q 2591 2978 2328 3040 
Q 2066 3103 1784 3103 
Q 1356 3103 1142 2972 
Q 928 2841 928 2578 
Q 928 2378 1081 2264 
Q 1234 2150 1697 2047 
L 1894 2003 
Q 2506 1872 2764 1633 
Q 3022 1394 3022 966 
Q 3022 478 2636 193 
Q 2250 -91 1575 -91 
Q 1294 -91 989 -36 
Q 684 19 347 128 
L 347 722 
Q 666 556 975 473 
Q 1284 391 1588 391 
Q 1994 391 2212 530 
Q 2431 669 2431 922 
Q 2431 1156 2273 1281 
Q 2116 1406 1581 1522 
L 1381 1569 
Q 847 1681 609 1914 
Q 372 2147 372 2553 
Q 372 3047 722 3315 
Q 1072 3584 1716 3584 
Q 2034 3584 2315 3537 
Q 2597 3491 2834 3397 
z
" transform="scale(0.015625)"/>
       <path id="DejaVuSans-69" d="M 603 3500 
L 1178 3500 
L 1178 0 
L 603 0 
L 603 3500 
z
M 603 4863 
L 1178 4863 
L 1178 4134 
L 603 4134 
L 603 4863 
z
" transform="scale(0.015625)"/>
       <path id="DejaVuSans-74" d="M 1172 4494 
L 1172 3500 
L 2356 3500 
L 2356 3053 
L 1172 3053 
L 1172 1153 
Q 1172 725 1289 603 
Q 1406 481 1766 481 
L 2356 481 
L 2356 0 
L 1766 0 
Q 1100 0 847 248 
Q 594 497 594 1153 
L 594 3053 
L 172 3053 
L 172 3500 
L 594 3500 
L 594 4494 
L 1172 4494 
z
" transform="scale(0.015625)"/>
       <path id="DejaVuSans-6f" d="M 1959 3097 
Q 1497 3097 1228 2736 
Q 959 2375 959 1747 
Q 959 1119 1226 758 
Q 1494 397 1959 397 
Q 2419 397 2687 759 
Q 2956 1122 2956 1747 
Q 2956 2369 2687 2733 
Q 2419 3097 1959 3097 
z
M 1959 3584 
Q 2709 3584 3137 3096 
Q 3566 2609 3566 1747 
Q 3566 888 3137 398 
Q 2709 -91 1959 -91 
Q 1206 -91 779 398 
Q 353 888 353 1747 
Q 353 2609 779 3096 
Q 1206 3584 1959 3584 
z
" transform="scale(0.015625)"/>
       <path id="DejaVuSans-53" d="M 3425 4513 
L 3425 3897 
Q 3066 4069 2747 4153 
Q 2428 4238 2131 4238 
Q 1616 4238 1336 4038 
Q 1056 3838 1056 3469 
Q 1056 3159 1242 3001 
Q 1428 2844 1947 2747 
L 2328 2669 
Q 3034 2534 3370 2195 
Q 3706 1856 3706 1288 
Q 3706 609 3251 259 
Q 2797 -91 1919 -91 
Q 1588 -91 1214 -16 
Q 841 59 441 206 
L 441 856 
Q 825 641 1194 531 
Q 1563 422 1919 422 
Q 2459 422 2753 634 
Q 3047 847 3047 1241 
Q 3047 1584 2836 1778 
Q 2625 1972 2144 2069 
L 1759 2144 
Q 1053 2284 737 2584 
Q 422 2884 422 3419 
Q 422 4038 858 4394 
Q 1294 4750 2059 4750 
Q 2388 4750 2728 4690 
Q 3069 4631 3425 4513 
z
" transform="scale(0.015625)"/>
       <path id="DejaVuSans-50" d="M 1259 4147 
L 1259 2394 
L 2053 2394 
Q 2494 2394 2734 2622 
Q 2975 2850 2975 3272 
Q 2975 3691 2734 3919 
Q 2494 4147 2053 4147 
L 1259 4147 
z
M 628 4666 
L 2053 4666 
Q 2838 4666 3239 4311 
Q 3641 3956 3641 3272 
Q 3641 2581 3239 2228 
Q 2838 1875 2053 1875 
L 1259 1875 
L 1259 0 
L 628 0 
L 628 4666 
z
" transform="scale(0.015625)"/>
       <path id="DejaVuSans-6c" d="M 603 4863 
L 1178 4863 
L 1178 0 
L 603 0 
L 603 4863 
z
" transform="scale(0.015625)"/>
       <path id="DejaVuSans-7a" d="M 353 3500 
L 3084 3500 
L 3084 2975 
L 922 459 
L 3084 459 
L 3084 0 
L 275 0 
L 275 525 
L 2438 3041 
L 353 3041 
L 353 3500 
z
" transform="scale(0.015625)"/>
       <path id="DejaVuSans-29" d="M 513 4856 
L 1013 4856 
Q 1481 4119 1714 3412 
Q 1947 2706 1947 2009 
Q 1947 1309 1714 600 
Q 1481 -109 1013 -844 
L 513 -844 
Q 928 -128 1133 580 
Q 1338 1288 1338 2009 
Q 1338 2731 1133 3434 
Q 928 4138 513 4856 
z
" transform="scale(0.015625)"/>
      </defs>
      <use xlink:href="#DejaVuSans-54"/>
      <use xlink:href="#DejaVuSans-65" x="44.083984"/>
      <use xlink:href="#DejaVuSans-72" x="105.607422"/>
      <use xlink:href="#DejaVuSans-6d" x="144.970703"/>
      <use xlink:href="#DejaVuSans-20" x="242.382812"/>
      <use xlink:href="#DejaVuSans-33" x="274.169922"/>
      <use xlink:href="#DejaVuSans-20" x="337.792969"/>
      <use xlink:href="#DejaVuSans-28" x="369.580078"/>
      <use xlink:href="#DejaVuSans-54" x="408.59375"/>
      <use xlink:href="#DejaVuSans-72" x="454.927734"/>
      <use xlink:href="#DejaVuSans-61" x="496.041016"/>
      <use xlink:href="#DejaVuSans-6e" x="557.320312"/>
      <use xlink:href="#DejaVuSans-73" x="620.699219"/>
      <use xlink:href="#DejaVuSans-69" x="672.798828"/>
      <use xlink:href="#DejaVuSans-74" x="700.582031"/>
      <use xlink:href="#DejaVuSans-69" x="739.791016"/>
      <use xlink:href="#DejaVuSans-6f" x="767.574219"/>
      <use xlink:href="#DejaVuSans-6e" x="828.755859"/>
      <use xlink:href="#DejaVuSans-20" x="892.134766"/>
      <use xlink:href="#DejaVuSans-53" x="923.921875"/>
      <use xlink:href="#DejaVuSans-74" x="987.398438"/>
      <use xlink:href="#DejaVuSans-61" x="1026.607422"/>
      <use xlink:href="#DejaVuSans-74" x="1087.886719"/>
      <use xlink:href="#DejaVuSans-65" x="1127.095703"/>
      <use xlink:href="#DejaVuSans-20" x="1188.619141"/>
      <use xlink:href="#DejaVuSans-50" x="1220.40625"/>
      <use xlink:href="#DejaVuSans-6f" x="1277.083984"/>
      <use xlink:href="#DejaVuSans-6c" x="1338.265625"/>
      <use xlink:href="#DejaVuSans-61" x="1366.048828"/>
      <use xlink:href="#DejaVuSans-72" x="1427.328125"/>
      <use xlink:href="#DejaVuSans-69" x="1468.441406"/>
      <use xlink:href="#DejaVuSans-7a" x="1496.224609"/>
      <use xlink:href="#DejaVuSans-61" x="1548.714844"/>
      <use xlink:href="#DejaVuSans-74" x="1609.994141"/>
      <use xlink:href="#DejaVuSans-69" x="1649.203125"/>
      <use xlink:href="#DejaVuSans-6f" x="1676.986328"/>
      <use xlink:href="#DejaVuSans-6e" x="1738.167969"/>
      <use xlink:href="#DejaVuSans-29" x="1801.546875"/>
     </g>
    </g>
    <g id="patch_45">
     <path d="M 628.521875 43.795469 
L 648.521875 43.795469 
L 648.521875 36.795469 
L 628.521875 36.795469 
z
" style="fill: url(#h8f6085ae86); stroke: #000000; stroke-width: 0.7; stroke-linejoin: miter"/>
    </g>
    <g id="text_22">
     <!-- Term 2 (NO₃⁻ Polarization) -->
     <g transform="translate(656.521875 43.795469) scale(0.1 -0.1)">
      <defs>
       <path id="DejaVuSans-4e" d="M 628 4666 
L 1478 4666 
L 3547 763 
L 3547 4666 
L 4159 4666 
L 4159 0 
L 3309 0 
L 1241 3903 
L 1241 0 
L 628 0 
L 628 4666 
z
" transform="scale(0.015625)"/>
       <path id="DejaVuSans-4f" d="M 2522 4238 
Q 1834 4238 1429 3725 
Q 1025 3213 1025 2328 
Q 1025 1447 1429 934 
Q 1834 422 2522 422 
Q 3209 422 3611 934 
Q 4013 1447 4013 2328 
Q 4013 3213 3611 3725 
Q 3209 4238 2522 4238 
z
M 2522 4750 
Q 3503 4750 4090 4092 
Q 4678 3434 4678 2328 
Q 4678 1225 4090 567 
Q 3503 -91 2522 -91 
Q 1538 -91 948 565 
Q 359 1222 359 2328 
Q 359 3434 948 4092 
Q 1538 4750 2522 4750 
z
" transform="scale(0.015625)"/>
       <path id="DejaVuSans-2083" d="M 1638 1388 
Q 1925 1332 2083 1161 
Q 2241 991 2241 735 
Q 2241 347 1944 138 
Q 1647 -71 1094 -71 
Q 916 -71 720 -38 
Q 525 -6 306 57 
L 306 435 
Q 469 351 655 310 
Q 841 269 1050 269 
Q 1391 269 1578 392 
Q 1766 516 1766 735 
Q 1766 966 1592 1085 
Q 1419 1204 1081 1204 
L 813 1204 
L 813 1541 
L 1106 1541 
Q 1400 1541 1551 1639 
Q 1703 1738 1703 1926 
Q 1703 2107 1547 2202 
Q 1391 2297 1094 2297 
Q 969 2297 809 2269 
Q 650 2241 397 2169 
L 397 2529 
Q 625 2582 825 2610 
Q 1025 2638 1197 2638 
Q 1647 2638 1911 2453 
Q 2175 2269 2175 1960 
Q 2175 1744 2034 1594 
Q 1894 1444 1638 1388 
z
" transform="scale(0.015625)"/>
       <path id="DejaVuSans-207b" d="M 428 3359 
L 2950 3359 
L 2950 3063 
L 428 3063 
L 428 3359 
z
" transform="scale(0.015625)"/>
      </defs>
      <use xlink:href="#DejaVuSans-54"/>
      <use xlink:href="#DejaVuSans-65" x="44.083984"/>
      <use xlink:href="#DejaVuSans-72" x="105.607422"/>
      <use xlink:href="#DejaVuSans-6d" x="144.970703"/>
      <use xlink:href="#DejaVuSans-20" x="242.382812"/>
      <use xlink:href="#DejaVuSans-32" x="274.169922"/>
      <use xlink:href="#DejaVuSans-20" x="337.792969"/>
      <use xlink:href="#DejaVuSans-28" x="369.580078"/>
      <use xlink:href="#DejaVuSans-4e" x="408.59375"/>
      <use xlink:href="#DejaVuSans-4f" x="483.398438"/>
      <use xlink:href="#DejaVuSans-2083" x="562.109375"/>
      <use xlink:href="#DejaVuSans-207b" x="602.197266"/>
      <use xlink:href="#DejaVuSans-20" x="654.980469"/>
      <use xlink:href="#DejaVuSans-50" x="686.767578"/>
      <use xlink:href="#DejaVuSans-6f" x="743.445312"/>
      <use xlink:href="#DejaVuSans-6c" x="804.626953"/>
      <use xlink:href="#DejaVuSans-61" x="832.410156"/>
      <use xlink:href="#DejaVuSans-72" x="893.689453"/>
      <use xlink:href="#DejaVuSans-69" x="934.802734"/>
      <use xlink:href="#DejaVuSans-7a" x="962.585938"/>
      <use xlink:href="#DejaVuSans-61" x="1015.076172"/>
      <use xlink:href="#DejaVuSans-74" x="1076.355469"/>
      <use xlink:href="#DejaVuSans-69" x="1115.564453"/>
      <use xlink:href="#DejaVuSans-6f" x="1143.347656"/>
      <use xlink:href="#DejaVuSans-6e" x="1204.529297"/>
      <use xlink:href="#DejaVuSans-29" x="1267.908203"/>
     </g>
    </g>
    <g id="patch_46">
     <path d="M 628.521875 58.473594 
L 648.521875 58.473594 
L 648.521875 51.473594 
L 628.521875 51.473594 
z
" style="fill: #b3d4ff; stroke: #000000; stroke-width: 0.7; stroke-linejoin: miter"/>
    </g>
    <g id="text_23">
     <!-- Term 1 (Dipole) -->
     <g transform="translate(656.521875 58.473594) scale(0.1 -0.1)">
      <defs>
       <path id="DejaVuSans-44" d="M 1259 4147 
L 1259 519 
L 2022 519 
Q 2988 519 3436 956 
Q 3884 1394 3884 2338 
Q 3884 3275 3436 3711 
Q 2988 4147 2022 4147 
L 1259 4147 
z
M 628 4666 
L 1925 4666 
Q 3281 4666 3915 4102 
Q 4550 3538 4550 2338 
Q 4550 1131 3912 565 
Q 3275 0 1925 0 
L 628 0 
L 628 4666 
z
" transform="scale(0.015625)"/>
       <path id="DejaVuSans-70" d="M 1159 525 
L 1159 -1331 
L 581 -1331 
L 581 3500 
L 1159 3500 
L 1159 2969 
Q 1341 3281 1617 3432 
Q 1894 3584 2278 3584 
Q 2916 3584 3314 3078 
Q 3713 2572 3713 1747 
Q 3713 922 3314 415 
Q 2916 -91 2278 -91 
Q 1894 -91 1617 61 
Q 1341 213 1159 525 
z
M 3116 1747 
Q 3116 2381 2855 2742 
Q 2594 3103 2138 3103 
Q 1681 3103 1420 2742 
Q 1159 2381 1159 1747 
Q 1159 1113 1420 752 
Q 1681 391 2138 391 
Q 2594 391 2855 752 
Q 3116 1113 3116 1747 
z
" transform="scale(0.015625)"/>
      </defs>
      <use xlink:href="#DejaVuSans-54"/>
      <use xlink:href="#DejaVuSans-65" x="44.083984"/>
      <use xlink:href="#DejaVuSans-72" x="105.607422"/>
      <use xlink:href="#DejaVuSans-6d" x="144.970703"/>
      <use xlink:href="#DejaVuSans-20" x="242.382812"/>
      <use xlink:href="#DejaVuSans-31" x="274.169922"/>
      <use xlink:href="#DejaVuSans-20" x="337.792969"/>
      <use xlink:href="#DejaVuSans-28" x="369.580078"/>
      <use xlink:href="#DejaVuSans-44" x="408.59375"/>
      <use xlink:href="#DejaVuSans-69" x="485.595703"/>
      <use xlink:href="#DejaVuSans-70" x="513.378906"/>
      <use xlink:href="#DejaVuSans-6f" x="576.855469"/>
      <use xlink:href="#DejaVuSans-6c" x="638.037109"/>
      <use xlink:href="#DejaVuSans-65" x="665.820312"/>
      <use xlink:href="#DejaVuSans-29" x="727.34375"/>
     </g>
    </g>
   </g>
  </g>
 </g>
 <defs>
  <clipPath id="p5e8ecbff27">
   <rect x="45.371875" y="12.518906" width="804.2" height="369.007825"/>
  </clipPath>
 </defs>
 <defs>
  <pattern id="hcd03fd75a8" patternUnits="userSpaceOnUse" x="0" y="0" width="72" height="72">
   <rect x="0" y="0" width="73" height="73" fill="#50e991"/>
   <path d="M -36 36 
L 36 -36 
M -24 48 
L 48 -24 
M -12 60 
L 60 -12 
M 0 72 
L 72 0 
M 12 84 
L 84 12 
M 24 96 
L 96 24 
M 36 108 
L 108 36 
M -36 36 
L 36 108 
M -24 24 
L 48 96 
M -12 12 
L 60 84 
M 0 0 
L 72 72 
M 12 -12 
L 84 60 
M 24 -24 
L 96 48 
M 36 -36 
L 108 36 
" style="fill: #000000; stroke: #000000; stroke-width: 1.0; stroke-linecap: butt; stroke-linejoin: miter"/>
  </pattern>
  <pattern id="h8f6085ae86" patternUnits="userSpaceOnUse" x="0" y="0" width="72" height="72">
   <rect x="0" y="0" width="73" height="73" fill="#e60049"/>
   <path d="M -36 36 
L 36 -36 
M -32 40 
L 40 -32 
M -28 44 
L 44 -28 
M -24 48 
L 48 -24 
M -20 52 
L 52 -20 
M -16 56 
L 56 -16 
M -12 60 
L 60 -12 
M -8 64 
L 64 -8 
M -4 68 
L 68 -4 
M 0 72 
L 72 0 
M 4 76 
L 76 4 
M 8 80 
L 80 8 
M 12 84 
L 84 12 
M 16 88 
L 88 16 
M 20 92 
L 92 20 
M 24 96 
L 96 24 
M 28 100 
L 100 28 
M 32 104 
L 104 32 
M 36 108 
L 108 36 
" style="fill: #000000; stroke: #000000; stroke-width: 1.0; stroke-linecap: butt; stroke-linejoin: miter"/>
  </pattern>
 </defs>
</svg>
